<mxfile host="app.diagrams.net" modified="2023-10-22T09:53:58.407Z" agent="Mozilla/5.0 (Windows NT 10.0; Win64; x64) AppleWebKit/537.36 (KHTML, like Gecko) Chrome/116.0.5845.888 YaBrowser/23.9.2.888 Yowser/2.5 Safari/537.36" etag="fYGcBUV6jtWgqzQke3Tr" version="22.0.6" type="github">
  <diagram id="C5RBs43oDa-KdzZeNtuy" name="Page-1">
    <mxGraphModel dx="1313" dy="557" grid="1" gridSize="10" guides="1" tooltips="1" connect="1" arrows="1" fold="1" page="1" pageScale="1" pageWidth="827" pageHeight="1169" math="0" shadow="0">
      <root>
        <mxCell id="WIyWlLk6GJQsqaUBKTNV-0" />
        <mxCell id="WIyWlLk6GJQsqaUBKTNV-1" parent="WIyWlLk6GJQsqaUBKTNV-0" />
        <mxCell id="YiDAc2OX2wacjoJceos9-40" style="edgeStyle=orthogonalEdgeStyle;rounded=0;orthogonalLoop=1;jettySize=auto;html=1;entryX=0.5;entryY=0;entryDx=0;entryDy=0;" edge="1" parent="WIyWlLk6GJQsqaUBKTNV-1" source="YiDAc2OX2wacjoJceos9-0" target="YiDAc2OX2wacjoJceos9-2">
          <mxGeometry relative="1" as="geometry" />
        </mxCell>
        <mxCell id="YiDAc2OX2wacjoJceos9-0" value="start" style="ellipse;whiteSpace=wrap;html=1;" vertex="1" parent="WIyWlLk6GJQsqaUBKTNV-1">
          <mxGeometry x="34" y="20" width="120" height="80" as="geometry" />
        </mxCell>
        <mxCell id="YiDAc2OX2wacjoJceos9-1" value="finish" style="ellipse;whiteSpace=wrap;html=1;" vertex="1" parent="WIyWlLk6GJQsqaUBKTNV-1">
          <mxGeometry x="34" y="504.5" width="120" height="80" as="geometry" />
        </mxCell>
        <mxCell id="YiDAc2OX2wacjoJceos9-41" style="edgeStyle=orthogonalEdgeStyle;rounded=0;orthogonalLoop=1;jettySize=auto;html=1;entryX=0.5;entryY=0;entryDx=0;entryDy=0;" edge="1" parent="WIyWlLk6GJQsqaUBKTNV-1" source="YiDAc2OX2wacjoJceos9-2" target="YiDAc2OX2wacjoJceos9-4">
          <mxGeometry relative="1" as="geometry" />
        </mxCell>
        <mxCell id="YiDAc2OX2wacjoJceos9-2" value="arr1 = {a,b}&lt;br&gt;arr2={c,d}&lt;br&gt;result" style="rounded=0;whiteSpace=wrap;html=1;" vertex="1" parent="WIyWlLk6GJQsqaUBKTNV-1">
          <mxGeometry x="34" y="130" width="120" height="60" as="geometry" />
        </mxCell>
        <mxCell id="YiDAc2OX2wacjoJceos9-42" style="edgeStyle=orthogonalEdgeStyle;rounded=0;orthogonalLoop=1;jettySize=auto;html=1;entryX=0.5;entryY=0;entryDx=0;entryDy=0;" edge="1" parent="WIyWlLk6GJQsqaUBKTNV-1" source="YiDAc2OX2wacjoJceos9-4" target="YiDAc2OX2wacjoJceos9-5">
          <mxGeometry relative="1" as="geometry" />
        </mxCell>
        <mxCell id="YiDAc2OX2wacjoJceos9-4" value="a,b&lt;br&gt;c,d" style="shape=parallelogram;perimeter=parallelogramPerimeter;whiteSpace=wrap;html=1;fixedSize=1;" vertex="1" parent="WIyWlLk6GJQsqaUBKTNV-1">
          <mxGeometry x="34" y="210" width="120" height="60" as="geometry" />
        </mxCell>
        <mxCell id="YiDAc2OX2wacjoJceos9-43" style="edgeStyle=orthogonalEdgeStyle;rounded=0;orthogonalLoop=1;jettySize=auto;html=1;entryX=0.5;entryY=0;entryDx=0;entryDy=0;" edge="1" parent="WIyWlLk6GJQsqaUBKTNV-1" source="YiDAc2OX2wacjoJceos9-5" target="YiDAc2OX2wacjoJceos9-6">
          <mxGeometry relative="1" as="geometry" />
        </mxCell>
        <mxCell id="YiDAc2OX2wacjoJceos9-5" value="result = arr1[0]*arr2[0] +&lt;br&gt;arr1[1]*arr2[1]" style="rounded=0;whiteSpace=wrap;html=1;" vertex="1" parent="WIyWlLk6GJQsqaUBKTNV-1">
          <mxGeometry x="34" y="300" width="120" height="60" as="geometry" />
        </mxCell>
        <mxCell id="YiDAc2OX2wacjoJceos9-44" style="edgeStyle=orthogonalEdgeStyle;rounded=0;orthogonalLoop=1;jettySize=auto;html=1;entryX=0.5;entryY=0;entryDx=0;entryDy=0;" edge="1" parent="WIyWlLk6GJQsqaUBKTNV-1" source="YiDAc2OX2wacjoJceos9-6" target="YiDAc2OX2wacjoJceos9-1">
          <mxGeometry relative="1" as="geometry" />
        </mxCell>
        <mxCell id="YiDAc2OX2wacjoJceos9-6" value="result" style="shape=document;whiteSpace=wrap;html=1;boundedLbl=1;" vertex="1" parent="WIyWlLk6GJQsqaUBKTNV-1">
          <mxGeometry x="34" y="390" width="120" height="80" as="geometry" />
        </mxCell>
        <mxCell id="YiDAc2OX2wacjoJceos9-27" value="" style="edgeStyle=orthogonalEdgeStyle;rounded=0;orthogonalLoop=1;jettySize=auto;html=1;entryX=0.5;entryY=0;entryDx=0;entryDy=0;" edge="1" parent="WIyWlLk6GJQsqaUBKTNV-1" source="YiDAc2OX2wacjoJceos9-7" target="YiDAc2OX2wacjoJceos9-9">
          <mxGeometry relative="1" as="geometry" />
        </mxCell>
        <mxCell id="YiDAc2OX2wacjoJceos9-7" value="start" style="ellipse;whiteSpace=wrap;html=1;" vertex="1" parent="WIyWlLk6GJQsqaUBKTNV-1">
          <mxGeometry x="434" y="20" width="120" height="80" as="geometry" />
        </mxCell>
        <mxCell id="YiDAc2OX2wacjoJceos9-8" value="finish" style="ellipse;whiteSpace=wrap;html=1;" vertex="1" parent="WIyWlLk6GJQsqaUBKTNV-1">
          <mxGeometry x="430" y="920" width="120" height="80" as="geometry" />
        </mxCell>
        <mxCell id="YiDAc2OX2wacjoJceos9-29" value="" style="edgeStyle=orthogonalEdgeStyle;rounded=0;orthogonalLoop=1;jettySize=auto;html=1;entryX=0.5;entryY=0;entryDx=0;entryDy=0;" edge="1" parent="WIyWlLk6GJQsqaUBKTNV-1" source="YiDAc2OX2wacjoJceos9-9" target="YiDAc2OX2wacjoJceos9-10">
          <mxGeometry relative="1" as="geometry" />
        </mxCell>
        <mxCell id="YiDAc2OX2wacjoJceos9-9" value="arr1 = {}&lt;br&gt;arr2 = {}&lt;br&gt;size&lt;br&gt;index = 0&lt;br&gt;result = 0" style="rounded=0;whiteSpace=wrap;html=1;" vertex="1" parent="WIyWlLk6GJQsqaUBKTNV-1">
          <mxGeometry x="434" y="120" width="120" height="70" as="geometry" />
        </mxCell>
        <mxCell id="YiDAc2OX2wacjoJceos9-31" style="edgeStyle=orthogonalEdgeStyle;rounded=0;orthogonalLoop=1;jettySize=auto;html=1;entryX=0.5;entryY=0;entryDx=0;entryDy=0;" edge="1" parent="WIyWlLk6GJQsqaUBKTNV-1" source="YiDAc2OX2wacjoJceos9-10" target="YiDAc2OX2wacjoJceos9-13">
          <mxGeometry relative="1" as="geometry" />
        </mxCell>
        <mxCell id="YiDAc2OX2wacjoJceos9-10" value="arr1&lt;br&gt;arr2" style="shape=parallelogram;perimeter=parallelogramPerimeter;whiteSpace=wrap;html=1;fixedSize=1;" vertex="1" parent="WIyWlLk6GJQsqaUBKTNV-1">
          <mxGeometry x="434" y="210" width="120" height="60" as="geometry" />
        </mxCell>
        <mxCell id="YiDAc2OX2wacjoJceos9-36" style="edgeStyle=orthogonalEdgeStyle;rounded=0;orthogonalLoop=1;jettySize=auto;html=1;entryX=0;entryY=0.5;entryDx=0;entryDy=0;" edge="1" parent="WIyWlLk6GJQsqaUBKTNV-1" source="YiDAc2OX2wacjoJceos9-11" target="YiDAc2OX2wacjoJceos9-14">
          <mxGeometry relative="1" as="geometry">
            <Array as="points">
              <mxPoint x="414" y="655" />
              <mxPoint x="414" y="545" />
            </Array>
          </mxGeometry>
        </mxCell>
        <mxCell id="YiDAc2OX2wacjoJceos9-11" value="result = result + arr1[index]*arr2[index]&lt;br&gt;index = index + 1" style="rounded=0;whiteSpace=wrap;html=1;" vertex="1" parent="WIyWlLk6GJQsqaUBKTNV-1">
          <mxGeometry x="434" y="640" width="120" height="60" as="geometry" />
        </mxCell>
        <mxCell id="YiDAc2OX2wacjoJceos9-21" value="" style="edgeStyle=orthogonalEdgeStyle;rounded=0;orthogonalLoop=1;jettySize=auto;html=1;" edge="1" parent="WIyWlLk6GJQsqaUBKTNV-1" source="YiDAc2OX2wacjoJceos9-12" target="YiDAc2OX2wacjoJceos9-8">
          <mxGeometry relative="1" as="geometry" />
        </mxCell>
        <mxCell id="YiDAc2OX2wacjoJceos9-12" value="result" style="shape=document;whiteSpace=wrap;html=1;boundedLbl=1;" vertex="1" parent="WIyWlLk6GJQsqaUBKTNV-1">
          <mxGeometry x="430" y="810" width="120" height="80" as="geometry" />
        </mxCell>
        <mxCell id="YiDAc2OX2wacjoJceos9-24" style="edgeStyle=orthogonalEdgeStyle;rounded=0;orthogonalLoop=1;jettySize=auto;html=1;" edge="1" parent="WIyWlLk6GJQsqaUBKTNV-1" source="YiDAc2OX2wacjoJceos9-13" target="YiDAc2OX2wacjoJceos9-23">
          <mxGeometry relative="1" as="geometry" />
        </mxCell>
        <mxCell id="YiDAc2OX2wacjoJceos9-33" value="" style="edgeStyle=orthogonalEdgeStyle;rounded=0;orthogonalLoop=1;jettySize=auto;html=1;" edge="1" parent="WIyWlLk6GJQsqaUBKTNV-1" source="YiDAc2OX2wacjoJceos9-13" target="YiDAc2OX2wacjoJceos9-15">
          <mxGeometry relative="1" as="geometry" />
        </mxCell>
        <mxCell id="YiDAc2OX2wacjoJceos9-13" value="len(arr1) == &lt;br&gt;len(arr2)" style="rhombus;whiteSpace=wrap;html=1;" vertex="1" parent="WIyWlLk6GJQsqaUBKTNV-1">
          <mxGeometry x="436" y="290" width="116" height="110" as="geometry" />
        </mxCell>
        <mxCell id="YiDAc2OX2wacjoJceos9-16" value="" style="edgeStyle=orthogonalEdgeStyle;rounded=0;orthogonalLoop=1;jettySize=auto;html=1;" edge="1" parent="WIyWlLk6GJQsqaUBKTNV-1" source="YiDAc2OX2wacjoJceos9-14" target="YiDAc2OX2wacjoJceos9-11">
          <mxGeometry relative="1" as="geometry" />
        </mxCell>
        <mxCell id="YiDAc2OX2wacjoJceos9-17" value="yes" style="edgeLabel;html=1;align=center;verticalAlign=middle;resizable=0;points=[];" vertex="1" connectable="0" parent="YiDAc2OX2wacjoJceos9-16">
          <mxGeometry x="-0.1055" y="-1" relative="1" as="geometry">
            <mxPoint as="offset" />
          </mxGeometry>
        </mxCell>
        <mxCell id="YiDAc2OX2wacjoJceos9-19" style="edgeStyle=orthogonalEdgeStyle;rounded=0;orthogonalLoop=1;jettySize=auto;html=1;entryX=1;entryY=0.5;entryDx=0;entryDy=0;" edge="1" parent="WIyWlLk6GJQsqaUBKTNV-1" source="YiDAc2OX2wacjoJceos9-14" target="YiDAc2OX2wacjoJceos9-12">
          <mxGeometry relative="1" as="geometry">
            <Array as="points">
              <mxPoint x="600" y="540" />
              <mxPoint x="600" y="850" />
            </Array>
          </mxGeometry>
        </mxCell>
        <mxCell id="YiDAc2OX2wacjoJceos9-26" value="no" style="edgeLabel;html=1;align=center;verticalAlign=middle;resizable=0;points=[];" vertex="1" connectable="0" parent="YiDAc2OX2wacjoJceos9-19">
          <mxGeometry x="-0.8676" relative="1" as="geometry">
            <mxPoint as="offset" />
          </mxGeometry>
        </mxCell>
        <mxCell id="YiDAc2OX2wacjoJceos9-14" value="index &amp;lt; size" style="rhombus;whiteSpace=wrap;html=1;" vertex="1" parent="WIyWlLk6GJQsqaUBKTNV-1">
          <mxGeometry x="436" y="490" width="116" height="110" as="geometry" />
        </mxCell>
        <mxCell id="YiDAc2OX2wacjoJceos9-35" style="edgeStyle=orthogonalEdgeStyle;rounded=0;orthogonalLoop=1;jettySize=auto;html=1;entryX=0.5;entryY=0;entryDx=0;entryDy=0;" edge="1" parent="WIyWlLk6GJQsqaUBKTNV-1" source="YiDAc2OX2wacjoJceos9-15" target="YiDAc2OX2wacjoJceos9-14">
          <mxGeometry relative="1" as="geometry" />
        </mxCell>
        <mxCell id="YiDAc2OX2wacjoJceos9-15" value="size = len(arr1)" style="rounded=0;whiteSpace=wrap;html=1;" vertex="1" parent="WIyWlLk6GJQsqaUBKTNV-1">
          <mxGeometry x="434" y="410" width="120" height="60" as="geometry" />
        </mxCell>
        <mxCell id="YiDAc2OX2wacjoJceos9-25" style="edgeStyle=orthogonalEdgeStyle;rounded=0;orthogonalLoop=1;jettySize=auto;html=1;entryX=1;entryY=0.5;entryDx=0;entryDy=0;" edge="1" parent="WIyWlLk6GJQsqaUBKTNV-1" source="YiDAc2OX2wacjoJceos9-23" target="YiDAc2OX2wacjoJceos9-8">
          <mxGeometry relative="1" as="geometry">
            <Array as="points">
              <mxPoint x="730" y="960" />
            </Array>
          </mxGeometry>
        </mxCell>
        <mxCell id="YiDAc2OX2wacjoJceos9-23" value="Для вычисления скалярного произведения размерность векторов должна быть одинаковой" style="shape=document;whiteSpace=wrap;html=1;boundedLbl=1;" vertex="1" parent="WIyWlLk6GJQsqaUBKTNV-1">
          <mxGeometry x="650" y="810" width="160" height="80" as="geometry" />
        </mxCell>
      </root>
    </mxGraphModel>
  </diagram>
</mxfile>
